<svg width="21" height="24" viewBox="0 0 21 24" fill="none" xmlns="http://www.w3.org/2000/svg">
<path d="M10.501 1.5C11.4955 1.5 12.4494 1.89509 13.1526 2.59835C13.8559 3.30161 14.251 4.25544 14.251 5.25V6H6.75098V5.25C6.75098 4.25544 7.14606 3.30161 7.84933 2.59835C8.55259 1.89509 9.50641 1.5 10.501 1.5ZM15.751 6V5.25C15.751 3.85761 15.1979 2.52226 14.2133 1.53769C13.2287 0.553123 11.8934 0 10.501 0C9.10859 0 7.77323 0.553123 6.78867 1.53769C5.8041 2.52226 5.25098 3.85761 5.25098 5.25V6H0.000976562V21C0.000976563 21.7956 0.317047 22.5587 0.879656 23.1213C1.44227 23.6839 2.20533 24 3.00098 24H18.001C18.7966 24 19.5597 23.6839 20.1223 23.1213C20.6849 22.5587 21.001 21.7956 21.001 21V6H15.751ZM1.50098 7.5H19.501V21C19.501 21.3978 19.3429 21.7794 19.0616 22.0607C18.7803 22.342 18.3988 22.5 18.001 22.5H3.00098C2.60315 22.5 2.22162 22.342 1.94032 22.0607C1.65901 21.7794 1.50098 21.3978 1.50098 21V7.5Z" fill="#1C1C1C"/>
</svg>