<svg width="329" height="66" viewBox="0 0 329 66" fill="none" xmlns="http://www.w3.org/2000/svg">
<path d="M20.5796 53.6253V56.9933H3.78119V27.3843H7.769V53.6253H20.5796ZM56.0844 53.7287L56.0638 56.9933H37.819V27.3843H56.0638V30.6489H41.8275V40.4842H53.357V43.6248H41.8275V53.7287H56.0844ZM128.671 27.3843V56.9933H125.159V35.236C125.159 34.9467 125.165 34.6368 125.179 34.3062C125.207 33.9756 125.234 33.6381 125.262 33.2937L115.096 51.8071C114.779 52.4269 114.297 52.7369 113.65 52.7369H113.071C112.424 52.7369 111.942 52.4269 111.625 51.8071L101.252 33.2111C101.335 33.9411 101.376 34.6161 101.376 35.236V56.9933H97.8638V27.3843H100.818C101.177 27.3843 101.452 27.4187 101.645 27.4876C101.838 27.5565 102.024 27.7493 102.203 28.0662L112.431 46.2903C112.596 46.6208 112.754 46.9652 112.906 47.3234C113.071 47.6815 113.223 48.0465 113.36 48.4185C113.498 48.0465 113.643 47.6815 113.794 47.3234C113.946 46.9514 114.111 46.6002 114.29 46.2696L124.332 28.0662C124.497 27.7493 124.676 27.5565 124.869 27.4876C125.076 27.4187 125.358 27.3843 125.716 27.3843H128.671ZM176.41 42.1991C176.41 44.4169 176.058 46.4556 175.356 48.3152C174.653 50.161 173.662 51.752 172.381 53.0881C171.099 54.4243 169.557 55.4643 167.752 56.2081C165.961 56.9382 163.978 57.3032 161.801 57.3032C159.625 57.3032 157.641 56.9382 155.851 56.2081C154.06 55.4643 152.524 54.4243 151.243 53.0881C149.962 51.752 148.97 50.161 148.268 48.3152C147.565 46.4556 147.214 44.4169 147.214 42.1991C147.214 39.9814 147.565 37.9496 148.268 36.1038C148.97 34.2442 149.962 32.6463 151.243 31.3101C152.524 29.9602 154.06 28.9133 155.851 28.1695C157.641 27.4256 159.625 27.0537 161.801 27.0537C163.978 27.0537 165.961 27.4256 167.752 28.1695C169.557 28.9133 171.099 29.9602 172.381 31.3101C173.662 32.6463 174.653 34.2442 175.356 36.1038C176.058 37.9496 176.41 39.9814 176.41 42.1991ZM172.298 42.1991C172.298 40.3809 172.05 38.7485 171.554 37.3022C171.058 35.8558 170.356 34.6367 169.447 33.645C168.537 32.6394 167.435 31.868 166.141 31.3308C164.846 30.7936 163.399 30.525 161.801 30.525C160.217 30.525 158.778 30.7936 157.483 31.3308C156.188 31.868 155.079 32.6394 154.156 33.645C153.247 34.6367 152.545 35.8558 152.049 37.3022C151.553 38.7485 151.305 40.3809 151.305 42.1991C151.305 44.0174 151.553 45.6497 152.049 47.0961C152.545 48.5287 153.247 49.7477 154.156 50.7533C155.079 51.7451 156.188 52.5096 157.483 53.0468C158.778 53.5702 160.217 53.832 161.801 53.832C163.399 53.832 164.846 53.5702 166.141 53.0468C167.435 52.5096 168.537 51.7451 169.447 50.7533C170.356 49.7477 171.058 48.5287 171.554 47.0961C172.05 45.6497 172.298 44.0174 172.298 42.1991ZM206.382 53.8113C207.608 53.8113 208.703 53.6047 209.667 53.1914C210.631 52.7782 211.444 52.1997 212.105 51.4558C212.78 50.712 213.29 49.8235 213.634 48.7904C213.992 47.7573 214.171 46.6208 214.171 45.3811V27.3843H218.159V45.3811C218.159 47.0892 217.884 48.6733 217.333 50.1334C216.795 51.5936 216.017 52.8608 214.998 53.9353C213.992 54.9959 212.759 55.8293 211.299 56.4354C209.839 57.0415 208.2 57.3446 206.382 57.3446C204.563 57.3446 202.924 57.0415 201.464 56.4354C200.004 55.8293 198.764 54.9959 197.745 53.9353C196.725 52.8608 195.94 51.5936 195.389 50.1334C194.852 48.6733 194.583 47.0892 194.583 45.3811V27.3843H198.571V45.3605C198.571 46.6002 198.743 47.7366 199.088 48.7697C199.446 49.8028 199.956 50.6913 200.617 51.4352C201.292 52.179 202.111 52.7644 203.076 53.1914C204.054 53.6047 205.156 53.8113 206.382 53.8113ZM253.299 32.0126C253.175 32.2193 253.038 32.3777 252.886 32.4879C252.748 32.5843 252.576 32.6325 252.37 32.6325C252.135 32.6325 251.86 32.5154 251.543 32.2813C251.226 32.0471 250.827 31.7922 250.345 31.5168C249.876 31.2275 249.305 30.9658 248.63 30.7316C247.968 30.4974 247.163 30.3803 246.212 30.3803C245.317 30.3803 244.525 30.5043 243.836 30.7522C243.161 30.9864 242.589 31.3101 242.121 31.7234C241.667 32.1366 241.322 32.6256 241.088 33.1904C240.854 33.7414 240.737 34.3406 240.737 34.988C240.737 35.8145 240.936 36.5032 241.336 37.0542C241.749 37.5915 242.286 38.0529 242.948 38.4386C243.623 38.8243 244.38 39.1618 245.22 39.4511C246.074 39.7265 246.942 40.0158 247.824 40.3189C248.719 40.6219 249.587 40.9663 250.427 41.352C251.281 41.7239 252.039 42.1991 252.7 42.7777C253.375 43.3562 253.912 44.0656 254.312 44.9059C254.725 45.7461 254.932 46.7793 254.932 48.0052C254.932 49.3001 254.711 50.5191 254.27 51.6624C253.83 52.792 253.182 53.7769 252.328 54.6171C251.488 55.4574 250.448 56.1186 249.208 56.6007C247.982 57.0828 246.584 57.3239 245.014 57.3239C243.085 57.3239 241.336 56.9795 239.766 56.2908C238.195 55.5883 236.852 54.6447 235.736 53.4601L236.894 51.5591C237.004 51.4076 237.135 51.2836 237.286 51.1872C237.451 51.077 237.63 51.0219 237.823 51.0219C238.002 51.0219 238.202 51.0977 238.423 51.2492C238.657 51.3869 238.918 51.566 239.208 51.7864C239.497 52.0068 239.828 52.2479 240.199 52.5096C240.571 52.7713 240.992 53.0124 241.46 53.2328C241.942 53.4532 242.486 53.6391 243.092 53.7906C243.698 53.9284 244.38 53.9973 245.138 53.9973C246.088 53.9973 246.935 53.8664 247.679 53.6047C248.423 53.343 249.05 52.9779 249.559 52.5096C250.083 52.0275 250.482 51.4558 250.758 50.7946C251.033 50.1334 251.171 49.3965 251.171 48.5838C251.171 47.6884 250.965 46.9583 250.551 46.3936C250.152 45.815 249.621 45.3329 248.96 44.9472C248.299 44.5615 247.541 44.2378 246.687 43.9761C245.833 43.7006 244.966 43.4251 244.084 43.1496C243.202 42.8603 242.335 42.5297 241.481 42.1578C240.627 41.7859 239.869 41.3038 239.208 40.7114C238.547 40.1191 238.009 39.3822 237.596 38.5006C237.197 37.6052 236.997 36.5032 236.997 35.1946C236.997 34.1477 237.197 33.1353 237.596 32.1573C238.009 31.1793 238.602 30.3115 239.373 29.5538C240.158 28.7962 241.116 28.1901 242.245 27.7356C243.388 27.281 244.697 27.0537 246.171 27.0537C247.824 27.0537 249.325 27.3154 250.675 27.8389C252.039 28.3623 253.237 29.1199 254.27 30.1117L253.299 32.0126ZM288.548 32.0126C288.424 32.2193 288.286 32.3777 288.135 32.4879C287.997 32.5843 287.825 32.6325 287.618 32.6325C287.384 32.6325 287.108 32.5154 286.792 32.2813C286.475 32.0471 286.075 31.7922 285.593 31.5168C285.125 31.2275 284.553 30.9658 283.878 30.7316C283.217 30.4974 282.411 30.3803 281.461 30.3803C280.565 30.3803 279.773 30.5043 279.085 30.7522C278.41 30.9864 277.838 31.3101 277.37 31.7234C276.915 32.1366 276.571 32.6256 276.336 33.1904C276.102 33.7414 275.985 34.3406 275.985 34.988C275.985 35.8145 276.185 36.5032 276.584 37.0542C276.998 37.5915 277.535 38.0529 278.196 38.4386C278.871 38.8243 279.629 39.1618 280.469 39.4511C281.323 39.7265 282.191 40.0158 283.072 40.3189C283.968 40.6219 284.836 40.9663 285.676 41.352C286.53 41.7239 287.287 42.1991 287.949 42.7777C288.624 43.3562 289.161 44.0656 289.56 44.9059C289.974 45.7461 290.18 46.7793 290.18 48.0052C290.18 49.3001 289.96 50.5191 289.519 51.6624C289.078 52.792 288.431 53.7769 287.577 54.6171C286.736 55.4574 285.696 56.1186 284.457 56.6007C283.231 57.0828 281.833 57.3239 280.262 57.3239C278.334 57.3239 276.584 56.9795 275.014 56.2908C273.444 55.5883 272.101 54.6447 270.985 53.4601L272.142 51.5591C272.252 51.4076 272.383 51.2836 272.535 51.1872C272.7 51.077 272.879 51.0219 273.072 51.0219C273.251 51.0219 273.451 51.0977 273.671 51.2492C273.905 51.3869 274.167 51.566 274.456 51.7864C274.745 52.0068 275.076 52.2479 275.448 52.5096C275.82 52.7713 276.24 53.0124 276.708 53.2328C277.19 53.4532 277.735 53.6391 278.341 53.7906C278.947 53.9284 279.629 53.9973 280.386 53.9973C281.337 53.9973 282.184 53.8664 282.928 53.6047C283.672 53.343 284.298 52.9779 284.808 52.5096C285.331 52.0275 285.731 51.4558 286.006 50.7946C286.282 50.1334 286.42 49.3965 286.42 48.5838C286.42 47.6884 286.213 46.9583 285.8 46.3936C285.4 45.815 284.87 45.3329 284.209 44.9472C283.548 44.5615 282.79 44.2378 281.936 43.9761C281.082 43.7006 280.214 43.4251 279.332 43.1496C278.451 42.8603 277.583 42.5297 276.729 42.1578C275.875 41.7859 275.117 41.3038 274.456 40.7114C273.795 40.1191 273.258 39.3822 272.845 38.5006C272.445 37.6052 272.245 36.5032 272.245 35.1946C272.245 34.1477 272.445 33.1353 272.845 32.1573C273.258 31.1793 273.85 30.3115 274.621 29.5538C275.407 28.7962 276.364 28.1901 277.494 27.7356C278.637 27.281 279.945 27.0537 281.419 27.0537C283.072 27.0537 284.574 27.3154 285.924 27.8389C287.287 28.3623 288.486 29.1199 289.519 30.1117L288.548 32.0126ZM326.916 53.7287L326.896 56.9933H308.651V27.3843H326.896V30.6489H312.659V40.4842H324.189V43.6248H312.659V53.7287H326.916Z" fill="#1D1D1B"/>
<path d="M42.8589 0.504885L42.9158 2.23179H42.6743C42.6285 1.8542 42.5216 1.54186 42.3564 1.29476C42.1926 1.04905 42.019 0.892189 41.8372 0.831109C41.6581 0.770029 41.3513 0.739489 40.9224 0.739489H39.5675V3.67967H40.2172C40.6364 3.67967 40.9154 3.60748 41.0529 3.46588C41.1917 3.32429 41.2611 3.0411 41.2611 2.61631H41.5151V5.05675H41.2611C41.2611 4.76245 41.2306 4.52646 41.1709 4.35432C41.1112 4.18219 41.0223 4.06558 40.9057 4.0045C40.7877 3.94064 40.5573 3.90872 40.2172 3.90872H39.5675V5.63007C39.5675 6.17562 39.5828 6.53239 39.6078 6.70175C39.6369 6.86972 39.7049 6.99604 39.816 7.07656C39.927 7.15846 40.1394 7.2001 40.4587 7.2001H40.6919V7.43471H37.4741V7.2001H37.6865C37.985 7.2001 38.189 7.16262 38.3029 7.08766C38.4167 7.0127 38.4917 6.89609 38.5236 6.73645C38.5555 6.57958 38.5722 6.20894 38.5722 5.63007V2.23179C38.5722 1.68068 38.5555 1.32391 38.5236 1.16566C38.4917 1.00324 38.4236 0.892189 38.3181 0.831109C38.2154 0.770029 37.9877 0.739489 37.6365 0.739489H37.5144V0.504885H42.8589Z" fill="#1D1D1B"/>
<path d="M52.6943 3.85735C52.9511 3.85041 53.2148 3.83931 53.4855 3.82681C53.7604 3.81432 53.995 3.77545 54.1977 3.71298C54.3989 3.65329 54.5614 3.56445 54.6863 3.44506C54.8085 3.32845 54.9084 3.17437 54.9792 2.98418C55.0514 2.79261 55.0875 2.55662 55.0875 2.2776C55.0875 1.79173 54.9653 1.40026 54.721 1.10875C54.4781 0.81445 53.9478 0.668692 53.1288 0.668692C53.0038 0.668692 52.8581 0.675632 52.6943 0.689513V3.85735ZM57.9333 7.43471H56.0689C55.7372 7.20288 55.2305 6.59763 54.5489 5.61618C54.3323 5.30107 54.106 4.99983 53.87 4.71248C53.6354 4.42512 53.4744 4.25021 53.3842 4.18635C53.2967 4.12389 53.1579 4.09196 52.9705 4.09196H52.6943V5.63007C52.6943 6.17562 52.7081 6.53239 52.7317 6.70175C52.7595 6.86972 52.8261 6.99604 52.9372 7.07656C53.0482 7.15846 53.2592 7.2001 53.5744 7.2001H53.9061V7.43471H50.5884V7.2001H50.8147C51.1103 7.2001 51.3172 7.16262 51.431 7.08766C51.5448 7.0127 51.617 6.89609 51.6462 6.73645C51.6795 6.57959 51.692 6.20894 51.692 5.63007V2.23179C51.692 1.68068 51.6795 1.32392 51.6462 1.16566C51.617 1.00324 51.549 0.892189 51.4421 0.831109C51.3366 0.770029 51.1089 0.739489 50.7577 0.739489H50.6411V0.504886L51.6309 0.453522C52.2931 0.422982 52.8178 0.409101 53.2051 0.409101C53.8673 0.409101 54.4045 0.470181 54.8182 0.592341C55.2319 0.714501 55.5664 0.915788 55.8232 1.19343C56.0787 1.47384 56.205 1.807 56.205 2.1957C56.205 2.64963 56.0384 3.03694 55.7052 3.35761C55.3721 3.6755 54.8806 3.87679 54.2338 3.95314C54.5225 4.09473 54.9903 4.59864 55.633 5.46626C56.1578 6.17285 56.5701 6.63511 56.8713 6.85167C57.1712 7.06962 57.5251 7.18622 57.9333 7.2001V7.43471Z" fill="#1D1D1B"/>
<path d="M67.1888 3.95999C67.1888 5.0747 67.4109 5.91039 67.8551 6.46983C68.3007 7.02788 68.9671 7.30691 69.8569 7.30691C70.6357 7.30691 71.2548 7.02788 71.7073 6.46983C72.1599 5.91039 72.3862 5.07748 72.3862 3.9711C72.3862 2.89386 72.1641 2.06789 71.7171 1.49457C71.2701 0.921253 70.6246 0.633898 69.775 0.633898C68.9407 0.633898 68.3007 0.912924 67.8551 1.47375C67.4109 2.03458 67.1888 2.86332 67.1888 3.95999ZM66.0186 3.92668C66.0186 2.855 66.3753 1.9971 67.0916 1.34881C67.8065 0.700532 68.7005 0.377084 69.768 0.377084C70.8508 0.377084 71.7518 0.697755 72.4764 1.33771C73.201 1.97905 73.5633 2.85361 73.5633 3.95999C73.5633 5.03306 73.2149 5.90206 72.5222 6.567C71.8281 7.23056 70.9175 7.56511 69.7847 7.56511C68.6839 7.56511 67.7816 7.23056 67.0764 6.567C66.3712 5.90206 66.0186 5.02195 66.0186 3.92668Z" fill="#1D1D1B"/>
<path d="M86.3129 6.23948L88.8367 0.504885H90.9648V0.739489H90.7079C90.3678 0.739489 90.1443 0.76864 90.0388 0.825556C89.9319 0.881083 89.8639 0.985198 89.8264 1.1379C89.7917 1.29199 89.7723 1.65708 89.7723 2.23179V5.63145C89.7723 6.17562 89.7876 6.53239 89.8126 6.70175C89.8403 6.86972 89.9097 6.99604 90.0208 7.07794C90.1318 7.15846 90.3428 7.2001 90.658 7.2001H90.9648V7.43471H87.6525V7.2001H87.8983C88.1912 7.2001 88.3938 7.16262 88.5077 7.08766C88.6215 7.01409 88.6965 6.89748 88.7284 6.73645C88.7603 6.57959 88.7756 6.21033 88.7756 5.63145V1.22119L86.0311 7.43471H85.7924L83.0257 1.22119V5.27886C83.0257 5.83274 83.0438 6.21033 83.0785 6.413C83.1118 6.61568 83.2187 6.7892 83.3936 6.9419C83.5713 7.09321 83.8198 7.17928 84.1418 7.2001V7.43471H81.6611V7.2001C81.9582 7.18345 82.1997 7.10154 82.3858 6.95856C82.5704 6.8128 82.6842 6.63511 82.7259 6.42411C82.7661 6.21033 82.787 5.82025 82.787 5.24693V2.23179C82.787 1.68068 82.7703 1.32392 82.7384 1.16566C82.7064 1.00463 82.6384 0.892189 82.5329 0.831109C82.4302 0.771417 82.2025 0.739489 81.8513 0.739489H81.6611V0.504885H83.774L86.3129 6.23948Z" fill="#1D1D1B"/>
<path d="M115.982 7.59373L111.08 1.09841V5.90847C111.08 6.30549 111.098 6.56925 111.138 6.69557C111.178 6.8219 111.288 6.93712 111.473 7.04262C111.657 7.14951 111.934 7.20226 112.303 7.20226V7.43686H109.714V7.20226C110.047 7.17727 110.298 7.11619 110.47 7.02041C110.645 6.92323 110.748 6.81634 110.781 6.70529C110.812 6.59146 110.83 6.32631 110.83 5.90847V2.23394C110.83 1.70227 110.805 1.3455 110.755 1.16643C110.706 0.984575 110.627 0.867968 110.52 0.817993C110.412 0.76663 110.172 0.740255 109.803 0.740255V0.50704H111.846L115.951 5.92929V1.78278C115.951 1.47738 115.919 1.26221 115.857 1.14005C115.793 1.01789 115.664 0.920719 115.471 0.848533C115.275 0.777735 115.043 0.740255 114.77 0.740255V0.50704H117.284V0.740255C116.992 0.765242 116.76 0.822157 116.592 0.909613C116.423 0.998457 116.316 1.10535 116.27 1.2289C116.224 1.35383 116.201 1.56345 116.201 1.86052V7.59373H115.982Z" fill="#1D1D1B"/>
<path d="M130.718 5.27852H130.964L130.814 7.43576H125.077V7.20116H125.218C125.561 7.20116 125.783 7.15535 125.885 7.06095C125.986 6.97072 126.05 6.85411 126.078 6.71252C126.104 6.57092 126.119 6.20999 126.119 5.63112V2.23284C126.119 1.70394 126.104 1.3569 126.075 1.19031C126.046 1.02373 125.978 0.907124 125.875 0.840491C125.771 0.773858 125.551 0.739153 125.218 0.739153V0.505938H130.17L130.335 2.23284H130.094C129.985 1.74975 129.851 1.40687 129.694 1.20281C129.533 1.00013 129.345 0.87103 129.127 0.818279C128.909 0.766916 128.558 0.739153 128.075 0.739153H127.113V3.6474H127.85C128.188 3.6474 128.425 3.61964 128.558 3.56133C128.693 3.50303 128.782 3.41558 128.825 3.29758C128.866 3.17958 128.887 2.95053 128.887 2.61043H129.127V4.98145H128.887C128.887 4.59692 128.854 4.33872 128.79 4.20823C128.726 4.07774 128.632 3.99167 128.507 3.9528C128.382 3.91393 128.171 3.89311 127.877 3.89311H127.113V5.53533C127.113 6.35436 127.166 6.83745 127.273 6.98321C127.378 7.12758 127.663 7.20116 128.127 7.20116H128.642C129.007 7.20116 129.306 7.15396 129.541 7.05956C129.777 6.96655 130.001 6.7736 130.214 6.48208C130.427 6.19056 130.595 5.78937 130.718 5.27852Z" fill="#1D1D1B"/>
<path d="M146.303 4.83455H146.522V7.26248H146.303C146.24 6.98624 146.131 6.74192 145.971 6.53091C145.36 7.22084 144.583 7.56511 143.635 7.56511C142.632 7.56511 141.815 7.24583 141.179 6.61143C140.544 5.97841 140.227 5.14134 140.227 4.09881C140.227 3.41582 140.372 2.76893 140.664 2.16507C140.957 1.56121 141.366 1.11005 141.891 0.817139C142.416 0.52562 142.992 0.377084 143.619 0.377084C144.136 0.377084 144.606 0.483974 145.027 0.697755C145.449 0.910147 145.761 1.14753 145.971 1.40434C146.117 1.1156 146.205 0.814363 146.236 0.506186H146.461L146.522 3.13263H146.303C146.15 2.19977 145.836 1.5501 145.364 1.1864C144.892 0.821303 144.361 0.639451 143.768 0.639451C143.04 0.639451 142.464 0.933747 142.037 1.52234C141.609 2.11232 141.397 2.95494 141.397 4.053C141.397 5.09275 141.63 5.88818 142.096 6.44068C142.563 6.99595 143.145 7.2722 143.84 7.2722C144.209 7.2722 144.59 7.18197 144.978 7.00151C145.366 6.82243 145.675 6.51425 145.901 6.08392C146.126 5.65358 146.262 5.23712 146.303 4.83455Z" fill="#1D1D1B"/>
<path d="M160.571 3.95974H156.952V5.63112C156.952 6.17668 156.966 6.53344 156.994 6.7028C157.02 6.87077 157.09 6.99709 157.201 7.07761C157.31 7.15951 157.523 7.20116 157.831 7.20116H158.01V7.43576H154.894V7.20116H155.071C155.37 7.20116 155.574 7.16368 155.688 7.08871C155.801 7.01375 155.876 6.89714 155.908 6.7375C155.94 6.58064 155.957 6.20999 155.957 5.63112V2.23284C155.957 1.68034 155.94 1.32497 155.908 1.16533C155.876 1.0043 155.807 0.893242 155.704 0.832161C155.6 0.771081 155.372 0.740541 155.023 0.740541H154.894V0.505939H158.01V0.740541H157.884C157.545 0.740541 157.324 0.768305 157.219 0.825221C157.113 0.880748 157.042 0.984861 157.006 1.13895C156.97 1.29165 156.952 1.65813 156.952 2.23284V3.60714H160.571V2.23284C160.571 1.68034 160.556 1.32497 160.525 1.16533C160.495 1.0043 160.427 0.893242 160.324 0.832161C160.22 0.771081 159.992 0.740541 159.643 0.740541H159.458V0.505939H162.61V0.740541H162.509C162.168 0.740541 161.944 0.768305 161.839 0.825221C161.733 0.880748 161.662 0.984861 161.626 1.13895C161.592 1.29165 161.574 1.65813 161.574 2.23284V5.63112C161.574 6.17668 161.585 6.53344 161.612 6.7028C161.637 6.87077 161.707 6.99709 161.816 7.07761C161.932 7.15951 162.143 7.20116 162.451 7.20116H162.61V7.43576H159.458V7.20116H159.697C159.991 7.20116 160.195 7.16368 160.309 7.08871C160.423 7.01375 160.495 6.89714 160.525 6.7375C160.556 6.58064 160.571 6.20999 160.571 5.63112V3.95974Z" fill="#1D1D1B"/>
<path d="M175.793 4.64967L174.566 1.697L173.344 4.64967H175.793ZM175.879 4.88011H173.249L173.07 5.31878C172.804 5.95595 172.671 6.37241 172.671 6.56676C172.671 6.7736 172.741 6.93185 172.882 7.04013C173.024 7.14702 173.206 7.20116 173.428 7.20116V7.43576H171.368V7.20116C171.674 7.15257 171.902 7.04429 172.052 6.87632C172.202 6.70557 172.384 6.35298 172.595 5.8102C172.611 5.75883 172.693 5.56171 172.841 5.21744L174.852 0.408765H175.053L177.367 5.91292L177.685 6.63894C177.755 6.80275 177.851 6.93046 177.973 7.02347C178.093 7.11648 178.275 7.17617 178.518 7.20116V7.43576H175.793V7.20116C176.126 7.20116 176.353 7.17478 176.469 7.1262C176.589 7.07622 176.647 6.97905 176.647 6.8319C176.647 6.75833 176.569 6.53344 176.411 6.16279L175.879 4.88011Z" fill="#1D1D1B"/>
<path d="M191.786 5.27852H192.032L191.882 7.43576H186.145V7.20116H186.288C186.63 7.20116 186.853 7.15535 186.954 7.06095C187.054 6.97072 187.119 6.85411 187.145 6.71252C187.173 6.57092 187.187 6.20999 187.187 5.63112V2.23284C187.187 1.70394 187.173 1.3569 187.143 1.19031C187.113 1.02373 187.047 0.907124 186.943 0.840491C186.84 0.773858 186.619 0.739153 186.288 0.739153V0.505938H191.238L191.403 2.23284H191.161C191.055 1.74975 190.92 1.40687 190.762 1.20281C190.602 1.00013 190.415 0.87103 190.195 0.818279C189.979 0.766916 189.626 0.739153 189.144 0.739153H188.182V3.6474H188.92C189.257 3.6474 189.493 3.61964 189.626 3.56133C189.761 3.50303 189.85 3.41558 189.893 3.29758C189.936 3.17958 189.956 2.95053 189.956 2.61043H190.195V4.98145H189.956C189.956 4.59692 189.923 4.33872 189.859 4.20823C189.794 4.07774 189.7 3.99167 189.576 3.9528C189.451 3.91393 189.24 3.89311 188.945 3.89311H188.182V5.53533C188.182 6.35436 188.235 6.83745 188.341 6.98321C188.448 7.12758 188.732 7.20116 189.194 7.20116H189.711C190.076 7.20116 190.376 7.15396 190.609 7.05956C190.846 6.96655 191.068 6.7736 191.284 6.48208C191.496 6.19056 191.664 5.78937 191.786 5.27852Z" fill="#1D1D1B"/>
<path d="M204.824 7.60007H204.508L202.116 2.09036C202.073 1.99041 202.002 1.82105 201.905 1.57951C201.775 1.25189 201.634 1.03256 201.489 0.920118C201.34 0.806287 201.104 0.747983 200.778 0.741042V0.506438H203.761V0.741042C203.392 0.741042 203.141 0.768806 203.013 0.822945C202.886 0.877084 202.823 0.981198 202.823 1.1339C202.823 1.23246 202.902 1.46567 203.061 1.82938L205.053 6.42844L206.654 2.60121C206.923 1.96126 207.057 1.54341 207.057 1.34907C207.057 0.957599 206.78 0.753536 206.225 0.741042V0.506438H208.341V0.741042C208.127 0.747983 207.937 0.824333 207.773 0.970093C207.609 1.11724 207.469 1.33241 207.35 1.6156L206.884 2.70394L204.824 7.60007Z" fill="#1D1D1B"/>
<path d="M218.91 4.64967L217.683 1.697L216.463 4.64967H218.91ZM218.998 4.88011H216.367L216.187 5.31878C215.922 5.95595 215.788 6.37241 215.788 6.56676C215.788 6.7736 215.859 6.93185 216.001 7.04013C216.142 7.14702 216.324 7.20116 216.545 7.20116V7.43576H214.486V7.20116C214.793 7.15257 215.021 7.04429 215.171 6.87632C215.321 6.70557 215.501 6.35298 215.712 5.8102C215.729 5.75883 215.812 5.56171 215.958 5.21744L217.971 0.408765H218.171L220.485 5.91292L220.803 6.63894C220.873 6.80275 220.969 6.93046 221.09 7.02347C221.212 7.11648 221.393 7.17617 221.635 7.20116V7.43576H218.91V7.20116C219.245 7.20116 219.471 7.17478 219.588 7.1262C219.706 7.07622 219.764 6.97905 219.764 6.8319C219.764 6.75833 219.686 6.53344 219.53 6.16279L218.998 4.88011Z" fill="#1D1D1B"/>
<path d="M241.655 3.95999C241.655 5.0747 241.877 5.91039 242.322 6.46983C242.767 7.02788 243.433 7.30691 244.323 7.30691C245.103 7.30691 245.721 7.02788 246.173 6.46983C246.626 5.91039 246.852 5.07748 246.852 3.9711C246.852 2.89386 246.63 2.06789 246.184 1.49457C245.736 0.921253 245.09 0.633898 244.241 0.633898C243.407 0.633898 242.767 0.912924 242.322 1.47375C241.877 2.03458 241.655 2.86332 241.655 3.95999ZM240.486 3.92668C240.486 2.855 240.841 1.9971 241.558 1.34881C242.272 0.700532 243.166 0.377084 244.235 0.377084C245.317 0.377084 246.218 0.697755 246.944 1.33771C247.667 1.97905 248.029 2.85361 248.029 3.95999C248.029 5.03306 247.682 5.90206 246.988 6.567C246.294 7.23056 245.383 7.56511 244.252 7.56511C243.15 7.56511 242.249 7.23056 241.542 6.567C240.837 5.90206 240.486 5.02195 240.486 3.92668Z" fill="#1D1D1B"/>
<path d="M263.194 5.39652L263.144 7.43576H257.257V7.20116H257.46C257.757 7.20116 257.962 7.16229 258.076 7.08871C258.191 7.01375 258.263 6.89714 258.295 6.7375C258.327 6.58064 258.344 6.20999 258.344 5.63112V2.23284C258.344 1.68034 258.327 1.32358 258.295 1.16533C258.263 1.0043 258.194 0.893242 258.091 0.832161C257.987 0.771081 257.759 0.740541 257.41 0.740541H257.257V0.505938H260.583V0.740541H260.276C259.935 0.740541 259.711 0.768305 259.607 0.825221C259.502 0.880748 259.429 0.984862 259.396 1.13895C259.359 1.29165 259.342 1.65813 259.342 2.23284V5.86156C259.342 6.3613 259.353 6.67642 259.382 6.80275C259.409 6.92768 259.482 7.02486 259.604 7.09566C259.725 7.16506 259.985 7.20116 260.384 7.20116H260.911C261.335 7.20116 261.653 7.16229 261.859 7.08871C262.066 7.01375 262.26 6.84995 262.446 6.5973C262.631 6.34465 262.8 5.94485 262.955 5.39652H263.194Z" fill="#1D1D1B"/>
<path d="M275.259 4.47778H278.246V4.72349C277.917 4.72349 277.692 4.75403 277.575 4.82205C277.457 4.8873 277.38 4.99835 277.344 5.15244C277.306 5.30931 277.287 5.68412 277.287 6.28104V7.01678C277.203 7.00289 277.133 6.99595 277.066 6.99595C276.804 6.99595 276.459 7.07647 276.036 7.23611C275.456 7.45544 274.918 7.56511 274.424 7.56511C273.433 7.56511 272.608 7.23611 271.95 6.58505C271.294 5.9326 270.965 5.10524 270.965 4.10297C270.965 3.1132 271.277 2.24419 271.906 1.49735C272.532 0.750505 273.383 0.377084 274.46 0.377084C275.386 0.377084 276.154 0.718578 276.759 1.39879C276.873 1.16141 276.944 0.904595 276.974 0.628346H277.22V2.94523H276.974C276.876 2.2317 276.606 1.6681 276.164 1.25164C275.724 0.835186 275.188 0.628346 274.557 0.628346C273.905 0.628346 273.339 0.86989 272.856 1.35437C272.371 1.83746 272.13 2.69674 272.13 3.92945C272.13 5.15938 272.363 6.03116 272.829 6.5434C273.297 7.05565 273.876 7.31246 274.567 7.31246C274.923 7.31246 275.243 7.24027 275.532 7.0959C275.822 6.95014 276.021 6.77384 276.125 6.567C276.232 6.35878 276.284 6.09641 276.284 5.7799C276.284 5.40926 276.261 5.16077 276.211 5.03584C276.159 4.91229 276.084 4.82761 275.982 4.78596C275.879 4.74293 275.693 4.72349 275.421 4.72349H275.259V4.47778Z" fill="#1D1D1B"/>
<path d="M291.32 4.64967L290.094 1.697L288.873 4.64967H291.32ZM291.408 4.88011H288.777L288.598 5.31878C288.331 5.95595 288.198 6.37241 288.198 6.56676C288.198 6.7736 288.269 6.93185 288.411 7.04013C288.552 7.14702 288.734 7.20116 288.955 7.20116V7.43576H286.896V7.20116C287.203 7.15257 287.43 7.04429 287.58 6.87632C287.73 6.70557 287.911 6.35298 288.122 5.8102C288.138 5.75883 288.222 5.56171 288.367 5.21744L290.38 0.408765H290.58L292.896 5.91292L293.212 6.63894C293.283 6.80275 293.379 6.93046 293.501 7.02347C293.622 7.11648 293.802 7.17617 294.045 7.20116V7.43576H291.32V7.20116C291.655 7.20116 291.881 7.17478 291.998 7.1262C292.116 7.07622 292.174 6.97905 292.174 6.8319C292.174 6.75833 292.096 6.53344 291.939 6.16279L291.408 4.88011Z" fill="#1D1D1B"/>
</svg>